<?xml version="1.0" encoding="UTF-8"?>
<svg xmlns="http://www.w3.org/2000/svg" width="135" height="60" viewBox="0 0 135 60" fill="none">
  <rect width="134.492" height="60" fill="white"></rect>
  <path d="M17.0951 12.5272C17.1163 12.351 17.1289 12.1692 17.1289 11.9835C17.1289 11.882 17.1297 11.7639 17.1171 11.6302C18.6854 11.6081 20.0609 10.4782 20.0609 9.17902C20.0609 8.51803 19.6296 8.01915 19.3865 7.72092C19.4408 7.70911 19.4959 7.69652 19.5517 7.68315C19.7815 7.88302 20.4331 8.59279 20.4331 9.48905C20.4331 11.0479 18.875 12.495 17.0951 12.5272ZM15.515 7.09849C15.4859 6.92459 15.4198 6.76721 15.3191 6.63187C15.3246 6.47292 15.3899 6.32105 15.6456 6.44616C15.5071 6.5878 15.6142 6.83882 15.6142 6.83882C15.6142 6.83882 15.8974 6.70741 15.8384 6.52013C16.2586 6.62085 15.9565 7.18505 15.515 7.09849ZM15.1507 7.89875C15.0948 7.66584 14.9752 7.42662 14.8233 7.24643C14.6849 7.08275 14.4559 6.88839 14.1474 6.88839C14.0066 6.88839 13.7705 6.95449 13.6202 7.01823C13.5643 6.91593 13.455 6.66964 13.455 6.55869C13.455 6.44459 13.6477 6.32892 14.0168 6.32892C14.8289 6.32892 15.3136 6.69561 15.3136 7.31095C15.3136 7.52734 15.2278 7.72407 15.1507 7.89875ZM17.2359 18.3643C17.3304 18.3643 17.376 18.3793 17.4311 18.3997C17.6648 19.0355 18.5658 20.2355 18.6035 20.2867L18.6114 20.2977L18.6248 20.2946C18.8459 20.2591 19.4101 20.1742 19.8822 20.1742H19.8932C19.9444 20.1742 20.0026 20.1742 20.0396 20.2104C20.0703 20.241 20.0852 20.2946 20.0852 20.3709C20.0852 20.4881 20.0357 20.6888 19.9759 20.7746C19.8106 20.5944 19.5423 20.5133 19.1127 20.5133C18.9836 20.5133 18.831 20.5519 18.7483 20.5739L18.7145 20.581L18.6759 20.5912L18.9238 20.8391C19.3062 21.2215 19.6367 21.5512 19.6367 21.7708C19.6367 21.903 19.5077 22.0753 19.3896 22.1516C19.3637 21.7495 18.9576 21.2113 18.5618 20.9099L18.528 20.8847L18.5217 21.0264C18.5162 21.1224 18.5075 21.2664 18.5075 21.4206C18.5075 22.1862 18.4296 22.3027 18.1645 22.3027C18.1235 22.3027 18.0614 22.2909 18.0228 22.2767C18.1723 22.0918 18.2313 21.8479 18.2313 21.4198L18.229 21.2223L18.2266 21.0633C18.2266 20.8879 18.2447 20.758 18.2589 20.6534L18.2668 20.5944L18.225 20.5889C18.1007 20.5715 17.8702 20.5401 17.6939 20.5401C17.3154 20.5401 17.0589 20.5747 16.8732 20.7494C16.7504 20.6502 16.6245 20.4795 16.6245 20.3717C16.6245 20.2119 16.7237 20.1993 16.8543 20.1993C16.9204 20.1993 16.9818 20.2088 17.0668 20.219C17.2296 20.2434 17.4744 20.2796 17.9788 20.2796H18.0102L18 20.2489C17.8725 19.883 17.5216 19.3511 16.959 18.6673C17.0093 18.4839 17.0589 18.3643 17.2359 18.3643ZM12.3777 20.2489L12.3675 20.2796H12.399C12.9026 20.2796 13.1481 20.2434 13.311 20.219C13.3959 20.2088 13.4573 20.1993 13.5234 20.1993C13.6532 20.1993 13.7532 20.2119 13.7532 20.3717C13.7532 20.4795 13.6273 20.6502 13.5053 20.7494C13.3188 20.5747 13.0623 20.5401 12.6846 20.5401C12.5075 20.5401 12.2762 20.5715 12.1527 20.5889L12.133 20.5912L12.111 20.5944L12.118 20.6534C12.133 20.758 12.1511 20.8879 12.1511 21.0633L12.1487 21.2223L12.1464 21.4198C12.1464 21.8479 12.2054 22.0918 12.3557 22.2767C12.3163 22.2909 12.2542 22.3027 12.2132 22.3027C11.9473 22.3027 11.8702 22.1862 11.8702 21.4206C11.8702 21.2664 11.8623 21.1224 11.8568 21.0264L11.8489 20.8839L11.8159 20.9099C11.4209 21.2113 11.0132 21.7495 10.9889 22.1516C10.87 22.0753 10.741 21.903 10.741 21.7708C10.741 21.5512 11.0715 21.2215 11.4539 20.8391L11.7018 20.5912L11.6294 20.5739C11.5468 20.5519 11.3941 20.5133 11.2643 20.5133C10.8354 20.5133 10.5679 20.5944 10.4018 20.7746C10.342 20.6888 10.2925 20.4881 10.2925 20.3709C10.2925 20.2946 10.3074 20.241 10.3381 20.2104C10.3751 20.1742 10.4333 20.1742 10.4845 20.1742H10.4955C10.9676 20.1742 11.5326 20.2591 11.7529 20.2946L11.7663 20.2977L11.7742 20.2867C11.8127 20.2355 12.7129 19.0355 12.9474 18.3997C13.0009 18.3793 13.0473 18.3643 13.1418 18.3643C13.3188 18.3643 13.3684 18.4839 13.4195 18.6673C12.8561 19.3511 12.5052 19.883 12.3777 20.2489ZM9.94466 9.48905C9.94466 8.59279 10.597 7.88302 10.8268 7.68315C10.8818 7.69652 10.9369 7.70911 10.992 7.72092C10.7481 8.01915 10.3169 8.51803 10.3169 9.17902C10.3169 10.4915 11.7191 11.631 13.307 11.631C13.2968 11.7435 13.2913 11.8615 13.2913 11.9835C13.2913 12.177 13.3023 12.3572 13.3212 12.5272C11.5255 12.5162 9.94466 11.0589 9.94466 9.48905ZM21.9887 12.2534C22.7945 13.5273 23.4248 13.5061 24.3769 13.5061C23.5892 12.9026 23.0683 12.129 22.8197 11.734L21.3482 9.37967C21.205 8.65259 20.8289 7.97272 20.2654 7.46675C20.4551 7.39515 20.6125 7.31961 20.7069 7.248C19.7461 7.248 18.794 6.76013 18.2699 6.76013C17.9331 6.76013 17.7167 6.96157 17.7167 7.22754C17.738 7.5242 18.0433 7.82557 18.6075 7.82557C18.735 7.82557 18.8986 7.80905 19.078 7.77915C19.3833 8.20485 19.6296 8.58964 19.6296 9.13889C19.6296 10.1697 18.3974 10.9731 17.1533 10.9731C17.0825 10.9731 17.0156 10.97 16.9456 10.9652C16.833 10.7095 16.4577 10.2807 16.4577 9.79279C16.4577 8.97364 16.992 8.30479 16.992 7.49351C16.992 6.98911 16.7465 6.67672 16.6521 6.54689C16.8047 6.40525 16.9715 6.23134 17.0109 6.11174C16.922 6.1503 16.8165 6.15502 16.6631 6.15502C16.0666 6.15502 15.5803 6 15.1066 6C14.8359 6 14.7635 6.08341 14.7635 6.16289C14.7635 6.192 14.7675 6.2219 14.7753 6.23607C14.6746 6.19672 14.5802 6.17075 14.4677 6.1503C14.3276 6.12354 14.1773 6.11016 14.0168 6.11016C13.4408 6.11016 13.2362 6.35174 13.2362 6.55869C13.2362 6.73338 13.3739 7.05285 13.5305 7.29679C13.7548 7.18348 14.0247 7.10715 14.1474 7.10715C14.4535 7.10715 14.725 7.3983 14.869 7.74295C14.6636 7.76813 14.6243 7.77679 14.4165 7.77679C13.8555 7.77679 13.4738 7.57613 13.3951 7.57613C13.3881 7.57613 13.3731 7.58007 13.3731 7.59266C13.3731 7.67134 13.5321 7.87908 13.8452 7.99318C14.2584 8.14426 14.8769 8.20721 14.9799 8.22452C14.9799 8.24262 14.8753 8.43777 14.758 8.47554C14.7336 8.48341 14.714 8.4842 14.6849 8.4779C14.2536 8.39292 14.1332 8.35672 13.5864 8.14898C13.5698 8.14269 13.5596 8.15292 13.5596 8.17023C13.5596 8.38662 14.1199 8.86426 14.6219 9.04761C14.2025 9.58269 13.6792 10.1304 13.4321 10.9652C13.3621 10.97 13.2944 10.9731 13.2244 10.9731C11.9803 10.9731 10.7481 10.1697 10.7481 9.13889C10.7481 8.58964 10.9944 8.20485 11.2997 7.77915C11.4791 7.80905 11.642 7.82557 11.7702 7.82557C12.3344 7.82557 12.6397 7.5242 12.6618 7.22754C12.6618 6.96157 12.4454 6.76013 12.1078 6.76013C11.5837 6.76013 10.6324 7.248 9.67003 7.248C9.76525 7.31961 9.92262 7.39515 10.1115 7.46675C9.54885 7.97272 9.17272 8.65259 9.02951 9.37967L7.55803 11.734C7.31016 12.129 6.78767 12.9026 6 13.5061C6.95213 13.5061 7.58321 13.5273 8.38898 12.2534L9.14361 11.0463C9.19948 11.2029 9.26793 11.3555 9.34898 11.505L7.84839 13.9058C7.59895 14.304 7.08118 15.0704 6.29036 15.6779C7.24249 15.6779 7.87357 15.6999 8.67934 14.4268L9.97062 12.3588C10.0674 12.4619 10.1689 12.5626 10.2759 12.6586L8.45351 15.5764C8.20328 15.9753 7.68866 16.7402 6.89626 17.3469C7.84839 17.3469 8.47948 17.3697 9.28446 16.0957L11.0612 13.2511C11.1785 13.3251 11.2981 13.3967 11.4224 13.4644L9.25298 16.9353C9.00275 17.3343 8.48813 18.0968 7.69574 18.7058C8.64787 18.7058 9.27895 18.7279 10.0847 17.4547L12.3179 13.8799C12.4501 13.9302 12.5839 13.979 12.72 14.0223L10.1965 18.0614C9.95016 18.4548 9.42374 19.2315 8.64 19.8319C9.59134 19.8319 10.2232 19.8539 11.0282 18.5807L13.7178 14.2765C13.7453 14.2812 13.7721 14.2851 13.7988 14.2906C13.872 14.5235 13.9231 14.7407 13.9231 14.9571C13.9231 16.3098 13.0355 17.5043 11.9701 18.4265C12.0386 18.4564 12.1574 18.4666 12.2668 18.4666C12.4871 18.4666 12.6287 18.4548 12.7287 18.4375C12.4816 18.9986 11.9512 19.7233 11.6837 20.0978C11.3351 20.0349 10.8275 19.9861 10.4955 19.9861C10.1477 19.9861 10.1083 20.1891 10.1083 20.3709C10.1083 20.6864 10.2563 20.9374 10.4278 21.0775C10.4923 20.9162 10.6222 20.7006 11.2643 20.7006C11.2769 20.7006 11.2989 20.7022 11.3288 20.7045C11.1415 20.913 10.5537 21.3883 10.5537 21.7708C10.5537 22.0241 10.8315 22.4042 11.1974 22.4042C11.1761 22.3224 11.1785 22.2476 11.1785 22.191C11.1785 21.8809 11.4531 21.5182 11.6852 21.2648C11.6782 21.3403 11.6821 21.3325 11.6821 21.4206C11.6821 22.1532 11.7482 22.49 12.2132 22.49C12.4414 22.49 12.5988 22.3649 12.6531 22.3271C12.351 22.0493 12.3352 21.8306 12.3352 21.4198C12.336 21.3128 12.3368 21.2081 12.3384 21.0641C12.3391 20.9697 12.3376 20.8454 12.3226 20.7557C12.4887 20.7329 12.5563 20.7329 12.6846 20.7329C12.6846 20.7329 13.3448 20.6801 13.5045 21.024C13.6839 20.8595 13.9444 20.6274 13.9444 20.3717C13.9444 20.2025 13.8641 20.0113 13.5234 20.0113C13.3944 20.0113 12.9891 20.09 12.65 20.09C12.7412 19.8877 13.1465 19.2944 13.4982 18.864C13.5517 19.0308 13.6344 19.211 13.8185 19.359C13.8445 19.082 14.0066 18.2062 14.4393 17.6939C14.4897 18.0401 14.5574 18.395 14.5574 19.1433C14.5574 20.9642 14.1199 22.309 13.1906 22.5655C13.3117 22.7756 13.5675 22.9652 13.8327 22.9652C14.1726 22.9652 14.3575 22.5805 14.5464 22.2177C14.6447 22.4852 14.9162 23.1415 15.1885 23.1415C15.4607 23.1415 15.733 22.4852 15.8313 22.2177C16.0194 22.5805 16.2051 22.9652 16.545 22.9652C16.8102 22.9652 17.066 22.7756 17.1871 22.5655C16.2578 22.309 15.8195 20.9642 15.8195 19.1433C15.8195 18.395 15.8872 18.0401 15.9376 17.6939C16.3711 18.2062 16.534 19.082 16.5584 19.359C16.7433 19.211 16.8268 19.0308 16.8795 18.864C17.2304 19.2944 17.6365 19.8877 17.7277 20.09C17.3886 20.09 16.9826 20.0113 16.8543 20.0113C16.5144 20.0113 16.4341 20.2025 16.4341 20.3717C16.4341 20.6274 16.6946 20.8595 16.874 21.024C17.0321 20.6801 17.6939 20.7329 17.6939 20.7329C17.8214 20.7329 17.889 20.7329 18.0559 20.7557C18.0401 20.8454 18.0393 20.9697 18.0401 21.0641C18.0417 21.2081 18.0417 21.3128 18.0425 21.4198C18.0425 21.8306 18.0268 22.0493 17.7246 22.3271C17.7789 22.3649 17.9363 22.49 18.1645 22.49C18.6295 22.49 18.6964 22.1532 18.6964 21.4206C18.6964 21.3325 18.6988 21.3403 18.6925 21.2648C18.9246 21.5182 19.1992 21.8809 19.1992 22.191C19.1992 22.2476 19.2024 22.3224 19.1795 22.4042C19.5462 22.4042 19.8248 22.0241 19.8248 21.7708C19.8248 21.3883 19.237 20.913 19.0481 20.7045C19.0788 20.7022 19.1009 20.7006 19.1127 20.7006C19.7555 20.7006 19.8854 20.9162 19.9499 21.0775C20.1214 20.9374 20.2694 20.6864 20.2694 20.3709C20.2694 20.1891 20.23 19.9861 19.8822 19.9861C19.5502 19.9861 19.0434 20.0349 18.694 20.0978C18.4257 19.7233 17.8969 18.9986 17.649 18.4375C17.749 18.4548 17.8914 18.4666 18.111 18.4666C18.2211 18.4666 18.3391 18.4564 18.4076 18.4265C17.3422 17.5043 16.4546 16.3098 16.4546 14.9571C16.4546 14.7407 16.5057 14.5235 16.5789 14.2906C16.6049 14.2851 16.6332 14.2812 16.6599 14.2765L19.3495 18.5807C20.1545 19.8539 20.7864 19.8319 21.7377 19.8319C20.954 19.2315 20.4275 18.4548 20.1812 18.0614L17.6569 14.0223C17.7938 13.979 17.9284 13.9302 18.0606 13.8799L20.293 17.4547C21.0988 18.7279 21.7298 18.7058 22.682 18.7058C21.8896 18.0968 21.375 17.3343 21.1247 16.9353L18.9561 13.4644C19.0788 13.3967 19.1992 13.3251 19.3157 13.2511L21.0932 16.0957C21.899 17.3697 22.5293 17.3469 23.4814 17.3469C22.6891 16.7402 22.1752 15.9753 21.9242 15.5764L20.1018 12.6586C20.2088 12.5626 20.3111 12.4619 20.4063 12.3588L21.6991 14.4268C22.5041 15.6999 23.1352 15.6779 24.0873 15.6779C23.2957 15.0704 22.7795 14.304 22.5293 13.9058L21.0295 11.505C21.1098 11.3555 21.1782 11.2029 21.2349 11.0463L21.9887 12.2534Z" fill="black"></path>
  <path d="M29.1557 6.78689H31.9098V22.5246H29.1557V6.78689Z" fill="black"></path>
  <path d="M29.1557 22.5246H31.9098V38.2623H29.1557V22.5246Z" fill="#FF0000"></path>
  <path d="M29.1557 38.2623H31.9098V54H29.1557V38.2623Z" fill="#FFCC00"></path>
  <path d="M41.5822 8.21902C41.5822 7.20866 40.9684 6.55712 39.4198 6.55712H38.1639V13.0725H39.4953C41.0534 13.0725 41.7521 12.3266 41.7521 11.3068C41.7521 10.438 41.195 9.87148 40.5246 9.73928V9.72039C41.0911 9.56931 41.5822 9.12551 41.5822 8.21902ZM40.7512 8.24735C40.7512 8.99331 40.2885 9.456 39.4104 9.456H38.9854V7.20866H39.4198C40.3357 7.20866 40.7512 7.65246 40.7512 8.24735ZM40.874 11.2501C40.874 11.9961 40.4585 12.3927 39.4953 12.3927H38.9854V10.1075H39.5426C40.3924 10.1075 40.874 10.5513 40.874 11.2501ZM45.2176 12.5626H45.2365V13.0725H45.9352V8.54007H45.1704V12.0055C45.0193 12.1944 44.7171 12.506 44.2544 12.506C43.7445 12.506 43.499 12.2038 43.499 11.4578V8.54007H42.7342V11.5145C42.7342 12.742 43.2346 13.1858 44.0372 13.1858C44.7266 13.1858 45.1326 12.7231 45.2176 12.5626ZM48.7963 9.0783C49.3251 9.0783 49.5801 9.3899 49.5801 10.1548V13.0725H50.3449V10.0981C50.3449 8.87056 49.835 8.42676 49.0229 8.42676C48.3147 8.42676 47.9087 8.88944 47.8237 9.04997H47.8048V8.54007H47.1061V13.0725H47.8709V9.57876C48.022 9.3899 48.3336 9.0783 48.7963 9.0783ZM53.0738 12.506C52.545 12.506 52.0729 12.0905 52.0729 10.8441C52.0729 9.55987 52.63 9.10662 53.3382 9.10662C53.612 9.10662 53.7915 9.18217 53.9236 9.26715V12.0622C53.8198 12.2132 53.5554 12.506 53.0738 12.506ZM53.9709 12.591H53.9897V13.0725H54.6885V6.31161L53.9236 6.39659V8.56839C53.782 8.51174 53.5743 8.45508 53.2815 8.45508C52.3184 8.45508 51.2797 9.04053 51.2797 10.8724C51.2797 12.5249 52.0068 13.1858 52.8661 13.1858C53.5837 13.1858 53.8859 12.7326 53.9709 12.591ZM57.3324 9.04997C57.814 9.04997 58.069 9.41823 58.069 10.0414C58.069 10.1831 58.0595 10.3058 58.0501 10.3719H56.4071C56.4448 9.5221 56.7942 9.04997 57.3324 9.04997ZM58.8621 12.6476L58.5789 12.1094C58.475 12.2132 58.1634 12.506 57.6251 12.506C56.8603 12.506 56.4448 12.0055 56.3976 10.9479H58.7111C58.7394 10.7308 58.7677 10.4569 58.7677 10.0698C58.7677 8.98387 58.2389 8.42676 57.3796 8.42676C56.4354 8.42676 55.6516 9.1444 55.6516 10.7496C55.6516 12.4588 56.3693 13.1858 57.5118 13.1858C58.3711 13.1858 58.7394 12.7798 58.8621 12.6476ZM62.0726 8.90833C61.9215 8.75725 61.6194 8.42676 60.9206 8.42676C60.1841 8.42676 59.6081 8.92721 59.6081 9.59764C59.6081 10.2209 59.948 10.5891 60.5146 10.9479L60.7979 11.1273C61.2322 11.4012 61.4588 11.5523 61.4588 11.9866C61.4588 12.2793 61.2133 12.506 60.7601 12.506C60.2691 12.506 59.9858 12.2132 59.8442 12.0622L59.4759 12.6665C59.6553 12.8553 60.0236 13.1858 60.7506 13.1858C61.676 13.1858 62.1954 12.6287 62.1954 11.9111C62.1954 11.2407 61.8177 10.8724 61.2039 10.5041L60.9206 10.3342C60.5146 10.0887 60.3257 9.8998 60.3257 9.55987C60.3257 9.29548 60.5429 9.0783 60.9489 9.0783C61.3739 9.0783 61.6383 9.34269 61.7421 9.456L62.0726 8.90833ZM64.7921 9.10662C65.2642 9.10662 65.4719 9.41823 65.4719 10.1548V13.0725H66.2368V10.032C66.2368 9.86203 66.2274 9.70151 66.199 9.55987C66.369 9.36158 66.6523 9.10662 67.0677 9.10662C67.5776 9.10662 67.8515 9.41823 67.8515 10.1548V13.0725H68.6163V10.032C68.6163 8.95554 68.1442 8.42676 67.2377 8.42676C66.6523 8.42676 66.2368 8.77613 66.0385 9.03108C65.8308 8.62505 65.4531 8.42676 64.9432 8.42676C64.3199 8.42676 63.9328 8.84223 63.81 9.04997H63.7912V8.54007H63.0924V13.0725H63.8573V9.57876C63.9894 9.41823 64.2822 9.10662 64.7921 9.10662ZM70.146 7.44472C70.4482 7.44472 70.6559 7.2181 70.6559 6.89705C70.6559 6.58544 70.4482 6.35882 70.146 6.35882C69.8344 6.35882 69.6267 6.58544 69.6267 6.89705C69.6267 7.2181 69.8344 7.44472 70.146 7.44472ZM70.5237 8.54007H69.7589V13.0725H70.5237V8.54007ZM73.3848 9.0783C73.9136 9.0783 74.1686 9.3899 74.1686 10.1548V13.0725H74.9334V10.0981C74.9334 8.87056 74.4235 8.42676 73.6115 8.42676C72.9033 8.42676 72.4972 8.88944 72.4123 9.04997H72.3934V8.54007H71.6946V13.0725H72.4595V9.57876C72.6106 9.3899 72.9222 9.0783 73.3848 9.0783ZM76.4631 7.44472C76.7653 7.44472 76.973 7.2181 76.973 6.89705C76.973 6.58544 76.7653 6.35882 76.4631 6.35882C76.1515 6.35882 75.9438 6.58544 75.9438 6.89705C75.9438 7.2181 76.1515 7.44472 76.4631 7.44472ZM76.8408 8.54007H76.076V13.0725H76.8408V8.54007ZM80.2968 8.90833C80.1458 8.75725 79.8436 8.42676 79.1448 8.42676C78.4083 8.42676 77.8323 8.92721 77.8323 9.59764C77.8323 10.2209 78.1722 10.5891 78.7388 10.9479L79.0221 11.1273C79.4564 11.4012 79.6831 11.5523 79.6831 11.9866C79.6831 12.2793 79.4376 12.506 78.9843 12.506C78.4933 12.506 78.21 12.2132 78.0684 12.0622L77.7001 12.6665C77.8795 12.8553 78.2478 13.1858 78.9749 13.1858C79.9003 13.1858 80.4196 12.6287 80.4196 11.9111C80.4196 11.2407 80.0419 10.8724 79.4281 10.5041L79.1448 10.3342C78.7388 10.0887 78.55 9.8998 78.55 9.55987C78.55 9.29548 78.7671 9.0783 79.1732 9.0783C79.5981 9.0783 79.8625 9.34269 79.9663 9.456L80.2968 8.90833ZM83.3751 12.9875L83.2713 12.3738C83.1957 12.421 83.0257 12.506 82.7991 12.506C82.412 12.506 82.2609 12.3171 82.2609 11.675V9.16328H83.2524L83.3468 8.54007H82.2609V7.27476H81.581L81.496 8.54007L80.9484 8.65338V9.16328H81.496V11.7789C81.496 12.7798 81.8926 13.1858 82.6669 13.1858C83.073 13.1858 83.309 13.0348 83.3751 12.9875ZM85.528 9.04997C86.0096 9.04997 86.2645 9.41823 86.2645 10.0414C86.2645 10.1831 86.2551 10.3058 86.2457 10.3719H84.6026C84.6404 9.5221 84.9898 9.04997 85.528 9.04997ZM87.0577 12.6476L86.7744 12.1094C86.6706 12.2132 86.359 12.506 85.8207 12.506C85.0559 12.506 84.6404 12.0055 84.5932 10.9479H86.9066C86.935 10.7308 86.9633 10.4569 86.9633 10.0698C86.9633 8.98387 86.4345 8.42676 85.5752 8.42676C84.631 8.42676 83.8472 9.1444 83.8472 10.7496C83.8472 12.4588 84.5649 13.1858 85.7074 13.1858C86.5667 13.1858 86.935 12.7798 87.0577 12.6476ZM90.0699 8.53062C89.9944 8.5023 89.8716 8.45508 89.6544 8.45508C89.0784 8.45508 88.8329 8.79502 88.7007 9.15384H88.6818V8.54007H87.9831V13.0725H88.7479V9.74872C88.8613 9.44656 89.1162 9.13495 89.5978 9.13495C89.8055 9.13495 89.9377 9.19161 89.9755 9.21049L90.0699 8.53062ZM91.118 7.44472C91.4202 7.44472 91.6279 7.2181 91.6279 6.89705C91.6279 6.58544 91.4202 6.35882 91.118 6.35882C90.8064 6.35882 90.5987 6.58544 90.5987 6.89705C90.5987 7.2181 90.8064 7.44472 91.118 7.44472ZM91.4957 8.54007H90.7309V13.0725H91.4957V8.54007ZM95.1217 12.5626H95.1406V13.0725H95.8393V8.54007H95.0745V12.0055C94.9234 12.1944 94.6212 12.506 94.1585 12.506C93.6486 12.506 93.4031 12.2038 93.4031 11.4578V8.54007H92.6383V11.5145C92.6383 12.742 93.1387 13.1858 93.9414 13.1858C94.6307 13.1858 95.0367 12.7231 95.1217 12.5626ZM98.7099 9.10662C99.182 9.10662 99.3897 9.41823 99.3897 10.1548V13.0725H100.155V10.032C100.155 9.86203 100.145 9.70151 100.117 9.55987C100.287 9.36158 100.57 9.10662 100.986 9.10662C101.495 9.10662 101.769 9.41823 101.769 10.1548V13.0725H102.534V10.032C102.534 8.95554 102.062 8.42676 101.156 8.42676C100.57 8.42676 100.155 8.77613 99.9563 9.03108C99.7486 8.62505 99.3709 8.42676 98.861 8.42676C98.2377 8.42676 97.8506 8.84223 97.7278 9.04997H97.709V8.54007H97.0102V13.0725H97.7751V9.57876C97.9073 9.41823 98.2 9.10662 98.7099 9.10662Z" fill="black"></path>
  <path d="M39.9108 18.6059L40.0052 17.9827H38.9854V17.1706C38.9854 16.5757 39.1837 16.3774 39.5426 16.3774C39.7409 16.3774 39.8825 16.453 39.958 16.5002L40.1186 15.8675C40.043 15.8203 39.7975 15.6976 39.4765 15.6976C38.806 15.6976 38.2206 16.0942 38.2206 17.0856V17.9921L37.6729 18.096V18.6059H38.2206V22.5152H38.9854V18.6059H39.9108ZM43.414 16.6796C43.414 16.3869 43.2157 16.198 42.9608 16.198C42.7058 16.198 42.5075 16.3869 42.5075 16.6796C42.5075 16.9723 42.7058 17.1612 42.9608 17.1612C43.2157 17.1612 43.414 16.9723 43.414 16.6796ZM41.9599 16.6796C41.9599 16.3869 41.7616 16.198 41.5066 16.198C41.2517 16.198 41.0534 16.3869 41.0534 16.6796C41.0534 16.9723 41.2517 17.1612 41.5066 17.1612C41.7616 17.1612 41.9599 16.9723 41.9599 16.6796ZM43.1213 22.0052H43.1402V22.5152H43.8389V17.9827H43.0741V21.4481C42.923 21.637 42.6208 21.9486 42.1582 21.9486C41.6483 21.9486 41.4027 21.6464 41.4027 20.9005V17.9827H40.6379V20.9571C40.6379 22.1847 41.1384 22.6285 41.941 22.6285C42.6303 22.6285 43.0363 22.1658 43.1213 22.0052ZM47.0966 17.9732C47.0211 17.9449 46.8983 17.8977 46.6812 17.8977C46.1052 17.8977 45.8597 18.2376 45.7275 18.5965H45.7086V17.9827H45.0098V22.5152H45.7747V19.1913C45.888 18.8892 46.1429 18.5776 46.6245 18.5776C46.8322 18.5776 46.9644 18.6342 47.0022 18.6531L47.0966 17.9732ZM50.5243 22.5152V19.7107H52.6678V19.0592H50.5243V16.6513H52.8472L52.9038 15.9997H49.7028V22.5152H50.5243ZM53.4798 20.2489C53.4798 21.9486 54.2447 22.6285 55.2456 22.6285C56.2371 22.6285 57.0586 21.9391 57.0586 20.2489C57.0586 18.5776 56.2937 17.8694 55.2928 17.8694C54.3202 17.8694 53.4798 18.5776 53.4798 20.2489ZM56.2654 20.2489C56.2654 21.4481 55.8971 21.9486 55.2739 21.9486C54.6507 21.9486 54.273 21.4481 54.273 20.2489C54.273 19.0497 54.6413 18.5209 55.2645 18.5209C55.8877 18.5209 56.2654 19.0497 56.2654 20.2489ZM60.1085 17.9732C60.033 17.9449 59.9102 17.8977 59.6931 17.8977C59.1171 17.8977 58.8715 18.2376 58.7393 18.5965H58.7205V17.9827H58.0217V22.5152H58.7866V19.1913C58.8999 18.8892 59.1548 18.5776 59.6364 18.5776C59.8441 18.5776 59.9763 18.6342 60.0141 18.6531L60.1085 17.9732ZM63.0168 18.351C62.8657 18.1999 62.5636 17.8694 61.8648 17.8694C61.1283 17.8694 60.5523 18.3698 60.5523 19.0403C60.5523 19.6635 60.8922 20.0317 61.4588 20.3906L61.7421 20.57C62.1764 20.8438 62.4031 20.9949 62.4031 21.4292C62.4031 21.722 62.1575 21.9486 61.7043 21.9486C61.2133 21.9486 60.93 21.6559 60.7884 21.5048L60.4201 22.1091C60.5995 22.298 60.9678 22.6285 61.6949 22.6285C62.6202 22.6285 63.1396 22.0713 63.1396 21.3537C63.1396 20.6833 62.7619 20.315 62.1481 19.9468L61.8648 19.7768C61.4588 19.5313 61.2699 19.3424 61.2699 19.0025C61.2699 18.7381 61.4871 18.5209 61.8932 18.5209C62.3181 18.5209 62.5825 18.7853 62.6863 18.8986L63.0168 18.351ZM66.8788 18.3226C66.7372 18.1621 66.4162 17.8694 65.7268 17.8694C64.8298 17.8694 63.8289 18.502 63.8289 20.2395C63.8289 22.0147 64.6315 22.6285 65.6419 22.6285C66.3501 22.6285 66.6994 22.298 66.8222 22.1563L66.5106 21.6275C66.4162 21.7314 66.1801 21.9486 65.7174 21.9486C65.0659 21.9486 64.6221 21.5142 64.6221 20.1828C64.6221 18.9836 65.132 18.5209 65.7835 18.5209C66.2367 18.5209 66.4728 18.7759 66.5578 18.8609L66.8788 18.3226ZM69.3717 18.5209C69.9005 18.5209 70.1554 18.8325 70.1554 19.5974V22.5152H70.9203V19.5407C70.9203 18.3415 70.4198 17.8694 69.6266 17.8694C68.8996 17.8694 68.5596 18.3037 68.4652 18.4454H68.4463V15.7542L67.6815 15.8392V22.5152H68.4463V19.0214C68.5974 18.8325 68.909 18.5209 69.3717 18.5209ZM74.5179 22.0052H74.5368V22.5152H75.2355V17.9827H74.4707V21.4481C74.3196 21.637 74.0174 21.9486 73.5548 21.9486C73.0449 21.9486 72.7994 21.6464 72.7994 20.9005V17.9827H72.0345V20.9571C72.0345 22.1847 72.535 22.6285 73.3376 22.6285C74.0269 22.6285 74.4329 22.1658 74.5179 22.0052ZM78.0967 18.5209C78.6254 18.5209 78.8804 18.8325 78.8804 19.5974V22.5152H79.6452V19.5407C79.6452 18.3132 79.1353 17.8694 78.3233 17.8694C77.6151 17.8694 77.209 18.3321 77.1241 18.4926H77.1052V17.9827H76.4064V22.5152H77.1713V19.0214C77.3224 18.8325 77.634 18.5209 78.0967 18.5209ZM82.9407 19.3896C82.9407 20.0412 82.5819 20.2961 82.1475 20.2961C81.7321 20.2961 81.3638 20.0412 81.3638 19.3896C81.3638 18.7381 81.7321 18.4832 82.1664 18.4832C82.5819 18.4832 82.9407 18.7381 82.9407 19.3896ZM84.0549 22.8645C84.0549 22.0052 83.4128 21.6653 82.5536 21.6653H81.9776C81.6471 21.6653 81.5149 21.5331 81.5149 21.3443C81.5149 21.1082 81.7321 20.9854 81.8831 20.9193C81.9587 20.9288 82.0342 20.9288 82.1192 20.9288C83.0068 20.9288 83.6867 20.3528 83.6867 19.3896C83.6867 19.0875 83.6111 18.8042 83.4695 18.5776H84.0361L84.1399 17.9827H82.7613C82.5724 17.9072 82.3742 17.8694 82.157 17.8694C81.3071 17.8694 80.6178 18.3698 80.6178 19.3896C80.6178 20.1073 80.9294 20.5605 81.3921 20.7777V20.7966C81.2788 20.8532 80.8444 21.0421 80.8444 21.5331C80.8444 21.8164 80.9483 22.0241 81.1372 22.1658V22.1847C80.9294 22.298 80.3818 22.619 80.3818 23.2894C80.3818 24.0732 80.9011 24.517 81.8643 24.517C83.2051 24.517 84.0549 23.8371 84.0549 22.8645ZM81.9209 23.8654C81.3827 23.8654 81.1183 23.6199 81.1183 23.1384C81.1183 22.6851 81.3638 22.4679 81.581 22.3452C81.6848 22.3641 81.8076 22.3735 81.9304 22.3735H82.5064C82.969 22.3735 83.2712 22.5435 83.2712 22.9778C83.2712 23.4405 82.8463 23.8654 81.9209 23.8654ZM84.8009 23.8371C85.3014 23.6577 85.8962 23.2517 85.8962 22.3924C85.8962 21.7692 85.6413 21.467 85.273 21.467C85.0086 21.467 84.782 21.637 84.782 21.9769C84.782 22.3263 85.0086 22.5152 85.3014 22.5152H85.3297C85.3297 23.0628 85.037 23.3083 84.6404 23.5066L84.8009 23.8371ZM92.3172 15.9997H87.9641V16.6513H89.7016V22.5152H90.5231V16.6513H92.2606L92.3172 15.9997ZM93.7525 18.4926C94.234 18.4926 94.489 18.8609 94.489 19.4841C94.489 19.6257 94.4796 19.7485 94.4701 19.8146H92.8271C92.8649 18.9647 93.2142 18.4926 93.7525 18.4926ZM95.2822 22.0902L94.9989 21.552C94.895 21.6559 94.5834 21.9486 94.0452 21.9486C93.2803 21.9486 92.8649 21.4481 92.8176 20.3906H95.1311C95.1594 20.1734 95.1878 19.8995 95.1878 19.5124C95.1878 18.4265 94.659 17.8694 93.7997 17.8694C92.8554 17.8694 92.0717 18.587 92.0717 20.1923C92.0717 21.9014 92.7893 22.6285 93.9319 22.6285C94.7912 22.6285 95.1594 22.2224 95.2822 22.0902ZM99.0498 18.3226C98.9081 18.1621 98.5871 17.8694 97.8978 17.8694C97.0007 17.8694 95.9998 18.502 95.9998 20.2395C95.9998 22.0147 96.8024 22.6285 97.8128 22.6285C98.521 22.6285 98.8704 22.298 98.9931 22.1563L98.6815 21.6275C98.5871 21.7314 98.351 21.9486 97.8883 21.9486C97.2368 21.9486 96.793 21.5142 96.793 20.1828C96.793 18.9836 97.3029 18.5209 97.9544 18.5209C98.4077 18.5209 98.6437 18.7759 98.7287 18.8609L99.0498 18.3226ZM101.543 18.5209C102.071 18.5209 102.326 18.8325 102.326 19.5974V22.5152H103.091V19.5407C103.091 18.3415 102.591 17.8694 101.798 17.8694C101.07 17.8694 100.731 18.3037 100.636 18.4454H100.617V15.7542L99.8524 15.8392V22.5152H100.617V19.0214C100.768 18.8325 101.08 18.5209 101.543 18.5209ZM105.924 18.5209C106.453 18.5209 106.708 18.8325 106.708 19.5974V22.5152H107.473V19.5407C107.473 18.3132 106.963 17.8694 106.151 17.8694C105.442 17.8694 105.036 18.3321 104.951 18.4926H104.933V17.9827H104.234V22.5152H104.999V19.0214C105.15 18.8325 105.461 18.5209 105.924 18.5209ZM108.407 20.2489C108.407 21.9486 109.172 22.6285 110.173 22.6285C111.165 22.6285 111.986 21.9391 111.986 20.2489C111.986 18.5776 111.221 17.8694 110.22 17.8694C109.248 17.8694 108.407 18.5776 108.407 20.2489ZM111.193 20.2489C111.193 21.4481 110.825 21.9486 110.201 21.9486C109.578 21.9486 109.201 21.4481 109.201 20.2489C109.201 19.0497 109.569 18.5209 110.192 18.5209C110.815 18.5209 111.193 19.0497 111.193 20.2489ZM113.705 15.7542L112.94 15.8392V21.5237C112.94 22.3263 113.289 22.6001 113.799 22.6001C114.139 22.6001 114.337 22.5152 114.413 22.4774L114.347 21.9108C114.3 21.9297 114.205 21.9675 114.064 21.9675C113.799 21.9675 113.705 21.8353 113.705 21.4576V15.7542ZM114.894 20.2489C114.894 21.9486 115.659 22.6285 116.66 22.6285C117.652 22.6285 118.473 21.9391 118.473 20.2489C118.473 18.5776 117.708 17.8694 116.707 17.8694C115.735 17.8694 114.894 18.5776 114.894 20.2489ZM117.68 20.2489C117.68 21.4481 117.312 21.9486 116.689 21.9486C116.065 21.9486 115.688 21.4481 115.688 20.2489C115.688 19.0497 116.056 18.5209 116.679 18.5209C117.302 18.5209 117.68 19.0497 117.68 20.2489ZM121.589 19.3896C121.589 20.0412 121.23 20.2961 120.796 20.2961C120.381 20.2961 120.012 20.0412 120.012 19.3896C120.012 18.7381 120.381 18.4832 120.815 18.4832C121.23 18.4832 121.589 18.7381 121.589 19.3896ZM122.703 22.8645C122.703 22.0052 122.061 21.6653 121.202 21.6653H120.626C120.296 21.6653 120.163 21.5331 120.163 21.3443C120.163 21.1082 120.381 20.9854 120.532 20.9193C120.607 20.9288 120.683 20.9288 120.768 20.9288C121.655 20.9288 122.335 20.3528 122.335 19.3896C122.335 19.0875 122.26 18.8042 122.118 18.5776H122.685L122.788 17.9827H121.41C121.221 17.9072 121.023 17.8694 120.806 17.8694C119.956 17.8694 119.266 18.3698 119.266 19.3896C119.266 20.1073 119.578 20.5605 120.041 20.7777V20.7966C119.927 20.8532 119.493 21.0421 119.493 21.5331C119.493 21.8164 119.597 22.0241 119.786 22.1658V22.1847C119.578 22.298 119.03 22.619 119.03 23.2894C119.03 24.0732 119.55 24.517 120.513 24.517C121.854 24.517 122.703 23.8371 122.703 22.8645ZM120.569 23.8654C120.031 23.8654 119.767 23.6199 119.767 23.1384C119.767 22.6851 120.012 22.4679 120.23 22.3452C120.333 22.3641 120.456 22.3735 120.579 22.3735H121.155C121.618 22.3735 121.92 22.5435 121.92 22.9778C121.92 23.4405 121.495 23.8654 120.569 23.8654ZM123.94 16.8873C124.243 16.8873 124.45 16.6607 124.45 16.3397C124.45 16.0281 124.243 15.8014 123.94 15.8014C123.629 15.8014 123.421 16.0281 123.421 16.3397C123.421 16.6607 123.629 16.8873 123.94 16.8873ZM124.318 17.9827H123.553V22.5152H124.318V17.9827ZM126.962 18.4926C127.444 18.4926 127.699 18.8609 127.699 19.4841C127.699 19.6257 127.689 19.7485 127.68 19.8146H126.037C126.074 18.9647 126.424 18.4926 126.962 18.4926ZM128.492 22.0902L128.209 21.552C128.105 21.6559 127.793 21.9486 127.255 21.9486C126.49 21.9486 126.075 21.4481 126.027 20.3906H128.341C128.369 20.1734 128.397 19.8995 128.397 19.5124C128.397 18.4265 127.869 17.8694 127.009 17.8694C126.065 17.8694 125.281 18.587 125.281 20.1923C125.281 21.9014 125.999 22.6285 127.142 22.6285C128.001 22.6285 128.369 22.2224 128.492 22.0902Z" fill="black"></path>
  <path d="M40.4585 31.4479H40.4774V31.9578H41.1761V27.4253H40.4113V30.8908C40.2602 31.0796 39.958 31.3912 39.4953 31.3912C38.9854 31.3912 38.7399 31.0891 38.7399 30.3431V27.4253H37.9751V30.3997C37.9751 31.6273 38.4755 32.0711 39.2782 32.0711C39.9675 32.0711 40.3735 31.6084 40.4585 31.4479ZM44.0372 27.9635C44.566 27.9635 44.821 28.2752 44.821 29.04V31.9578H45.5858V28.9833C45.5858 27.7558 45.0759 27.312 44.2639 27.312C43.5557 27.312 43.1496 27.7747 43.0646 27.9352H43.0458V27.4253H42.347V31.9578H43.1119V28.464C43.2629 28.2752 43.5745 27.9635 44.0372 27.9635ZM48.3147 31.3912C47.7859 31.3912 47.3138 30.9757 47.3138 29.7293C47.3138 28.4451 47.8709 27.9919 48.5791 27.9919C48.853 27.9919 49.0324 28.0674 49.1646 28.1524V30.9474C49.0607 31.0985 48.7963 31.3912 48.3147 31.3912ZM49.2118 31.4762H49.2307V31.9578H49.9294V25.1969L49.1646 25.2818V27.4536C49.0229 27.397 48.8152 27.3403 48.5225 27.3403C47.5593 27.3403 46.5206 27.9258 46.5206 29.7576C46.5206 31.4101 47.2477 32.0711 48.107 32.0711C48.8246 32.0711 49.1268 31.6178 49.2118 31.4762ZM55.9066 27.312C55.9066 28.1618 55.4345 28.6529 54.443 28.6529H54.0842V26.0939H54.4808C55.4533 26.0939 55.9066 26.4905 55.9066 27.312ZM54.0842 29.3044H54.443C54.5941 29.3044 54.7451 29.295 54.8868 29.2855L56.2371 31.9578H57.2002L55.6705 29.0872C56.4165 28.7662 56.7848 28.1146 56.7848 27.2648C56.7848 26.0656 56.0482 25.4424 54.4808 25.4424H53.2627V31.9578H54.0842V29.3044ZM59.8253 29.4083H59.5892C58.56 29.4083 57.7007 29.7576 57.7007 30.8058C57.7007 31.5423 58.22 32.0711 58.9093 32.0711C59.4853 32.0711 59.7592 31.6839 59.863 31.4573H59.8819C59.8914 31.6839 59.9008 31.8256 59.9103 31.9578H60.6373C60.6185 31.835 60.5807 31.4007 60.5807 31.0135V28.9456C60.5807 27.803 60.0897 27.312 59.1643 27.312C58.4372 27.312 58.0028 27.6614 57.8046 27.8597L58.1256 28.3696C58.2956 28.2185 58.5977 27.9635 59.051 27.9635C59.542 27.9635 59.8253 28.2091 59.8253 28.9739V29.4083ZM59.8253 29.9748V30.9757C59.7309 31.1174 59.5137 31.4195 59.0699 31.4195C58.6922 31.4195 58.4655 31.1835 58.4655 30.7208C58.4655 30.2203 58.8527 30.0126 59.5798 29.9843L59.8253 29.9748ZM64.1878 31.4479H64.2066V31.9578H64.9054V27.4253H64.1405V30.8908C63.9895 31.0796 63.6873 31.3912 63.2246 31.3912C62.7147 31.3912 62.4692 31.0891 62.4692 30.3431V27.4253H61.7043V30.3997C61.7043 31.6273 62.2048 32.0711 63.0074 32.0711C63.6967 32.0711 64.1028 31.6084 64.1878 31.4479ZM67.7759 27.9919C68.2481 27.9919 68.4558 28.3035 68.4558 29.04V31.9578H69.2207V28.9172C69.2207 28.7473 69.2112 28.5868 69.1829 28.4451C69.3529 28.2468 69.6361 27.9919 70.0516 27.9919C70.5615 27.9919 70.8354 28.3035 70.8354 29.04V31.9578H71.6002V28.9172C71.6002 27.8408 71.1281 27.312 70.2216 27.312C69.6361 27.312 69.2207 27.6614 69.0224 27.9163C68.8146 27.5103 68.4369 27.312 67.927 27.312C67.3038 27.312 66.9167 27.7275 66.7939 27.9352H66.775V27.4253H66.0763V31.9578H66.8411V28.464C66.9733 28.3035 67.266 27.9919 67.7759 27.9919ZM74.6502 28.0485L74.7446 27.4253H73.7248V26.6132C73.7248 26.0184 73.9231 25.8201 74.2819 25.8201C74.4802 25.8201 74.6218 25.8956 74.6974 25.9428L74.8579 25.3102C74.7824 25.263 74.5368 25.1402 74.2158 25.1402C73.5454 25.1402 72.9599 25.5368 72.9599 26.5283V27.4348L72.4123 27.5386V28.0485H72.9599V31.9578H73.7248V28.0485H74.6502ZM77.2185 29.4083H76.9825C75.9532 29.4083 75.0939 29.7576 75.0939 30.8058C75.0939 31.5423 75.6133 32.0711 76.3026 32.0711C76.8786 32.0711 77.1524 31.6839 77.2563 31.4573H77.2752C77.2846 31.6839 77.2941 31.8256 77.3035 31.9578H78.0306C78.0117 31.835 77.974 31.4007 77.974 31.0135V28.9456C77.974 27.803 77.4829 27.312 76.5576 27.312C75.8305 27.312 75.3961 27.6614 75.1978 27.8597L75.5189 28.3696C75.6888 28.2185 75.991 27.9635 76.4442 27.9635C76.9353 27.9635 77.2185 28.2091 77.2185 28.9739V29.4083ZM77.2185 29.9748V30.9757C77.1241 31.1174 76.9069 31.4195 76.4631 31.4195C76.0854 31.4195 75.8588 31.1835 75.8588 30.7208C75.8588 30.2203 76.246 30.0126 76.973 29.9843L77.2185 29.9748ZM80.8162 27.9635C81.3449 27.9635 81.5999 28.2752 81.5999 29.04V31.9578H82.3648V28.9833C82.3648 27.7841 81.8643 27.312 81.0711 27.312C80.344 27.312 80.0041 27.7464 79.9097 27.888H79.8908V25.1969L79.1259 25.2818V31.9578H79.8908V28.464C80.0419 28.2752 80.3535 27.9635 80.8162 27.9635ZM85.5941 27.4159C85.5186 27.3875 85.3958 27.3403 85.1786 27.3403C84.6026 27.3403 84.3571 27.6803 84.2249 28.0391H84.2061V27.4253H83.5073V31.9578H84.2721V28.634C84.3855 28.3318 84.6404 28.0202 85.122 28.0202C85.3297 28.0202 85.4619 28.0769 85.4997 28.0957L85.5941 27.4159ZM88.3136 31.8728L88.2097 31.259C88.1342 31.3062 87.9642 31.3912 87.7376 31.3912C87.3504 31.3912 87.1993 31.2024 87.1993 30.5603V28.0485H88.1908L88.2852 27.4253H87.1993V26.16H86.5195L86.4345 27.4253L85.8868 27.5386V28.0485H86.4345V30.6641C86.4345 31.6651 86.8311 32.0711 87.6054 32.0711C88.0114 32.0711 88.2475 31.92 88.3136 31.8728Z" fill="black"></path>
</svg>
